<mxfile host="app.diagrams.net" modified="2023-05-02T13:13:35.450Z" agent="Mozilla/5.0 (Windows NT 10.0; Win64; x64) AppleWebKit/537.36 (KHTML, like Gecko) Chrome/111.0.0.0 Safari/537.36 OPR/97.0.0.0" version="21.2.4" etag="xkWQ_j5eDV4QlAPslSBb" type="github">
  <diagram name="Page-1" id="cejkwaQPEEQEflNILu4A">
    <mxGraphModel>
      <root>
        <mxCell id="0" />
        <mxCell id="1" parent="0" />
      </root>
    </mxGraphModel>
  </diagram>
</mxfile>
